Coordinates
version=1
nRows=22
nColumns=32
inDegrees=yes

Units are S.I. units (second, meters, Newtons, ...)
If the header above contains a line with 'inDegrees', this indicates whether rotational values are in degrees (yes) or radians (no).

endheader
time	pelvis_tilt	pelvis_list	pelvis_rotation	pelvis_tx	pelvis_ty	pelvis_tz	hip_flexion_r	hip_adduction_r	hip_rotation_r	knee_angle_r	knee_adduction_r	med_cond_adduction_r	lat_cond_adduction_r	patella_r_constrained_knee_angle	ankle_angle_r	subtalar_angle_r	mtp_angle_r	hip_flexion_l	hip_adduction_l	hip_rotation_l	knee_angle_l	knee_adduction_l	med_cond_adduction_l	lat_cond_adduction_l	patella_l_constrained_knee_angle	ankle_angle_l	subtalar_angle_l	mtp_angle_l	lumbar_extension	lumbar_bending	lumbar_rotation
      0.00416667	     10.11064303	    -17.47595797	     89.02194130	      0.44936721	      1.12266975	      0.18685205	     28.72159305	     13.50902477	     39.90469834	     -2.78795613	      0.00000000	      0.00000000	     -0.00000000	     -0.04865901	    -10.92646097	    -19.92122910	      0.00000000	    -17.10242065	     -9.49237359	      5.33050815	    -14.65298660	     -0.00000000	     -0.00000000	      0.00000000	     -0.25574286	    -36.84082935	     -1.10651708	      0.00000000	      0.00000000	     -0.00000000	      0.00000000
      0.00833333	      9.63063178	    -16.93483257	     88.78982536	      0.44971005	      1.12241228	      0.17194243	     28.06229182	     13.07969760	     39.91160280	     -2.31354270	      0.00000000	     -0.00000000	      0.00000000	     -0.04037894	    -10.68802595	    -19.92072031	     -0.00000000	    -18.05049133	     -8.87578008	      6.01257736	    -15.21149946	     -0.00000000	     -0.00000000	      0.00000000	     -0.26549075	    -37.00018215	     -1.22093902	      0.00000000	      0.00000000	     -0.00000000	     -0.00000000
      0.01250000	      9.20644146	    -16.33450737	     88.55680182	      0.44997865	      1.12213444	      0.15694661	     27.30297078	     12.69793013	     39.91783480	     -1.83529674	      0.00000000	      0.00000000	     -0.00000000	     -0.03203197	    -10.55772586	    -19.92019518	     -0.00000000	    -19.02422845	     -8.30614618	      6.54716968	    -15.86569689	      0.00000000	      0.00000000	     -0.00000000	     -0.27690865	    -37.11689458	     -1.22770414	     -0.00000000	      0.00000000	     -0.00000000	     -0.00000000
      0.01666667	      8.87060112	    -15.63297422	     88.30191710	      0.45027912	      1.12194434	      0.14181325	     26.39789192	     12.41695525	     39.92271724	     -1.39744225	     -0.00000000	     -0.00000000	      0.00000000	     -0.02438997	    -10.43648681	    -19.91938777	     -0.00000000	    -20.07890104	     -7.81972841	      6.86897240	    -16.56254544	     -0.00000000	      0.00000000	     -0.00000000	     -0.28907095	    -37.20752837	     -1.09960429	      0.00000000	     -0.00000000	      0.00000000	     -0.00000000
      0.02083333	      8.53944770	    -14.87327435	     88.04645050	      0.45052986	      1.12176894	      0.12663016	     25.38696521	     12.13827093	     39.92661967	     -0.97113799	      0.00000000	      0.00000000	     -0.00000000	     -0.01694956	    -10.34357261	    -19.91847440	     -0.00000000	    -21.15276467	     -7.33399259	      7.13011775	    -17.30191027	     -0.00000000	      0.00000000	     -0.00000000	     -0.30197530	    -37.32195023	     -0.97272820	      0.00000000	     -0.00000000	      0.00000000	     -0.00000000
      0.02500000	      8.25919001	    -14.00312324	     87.77966348	      0.45077620	      1.12166160	      0.11127638	     24.22036603	     11.91678304	     39.92983246	     -0.62500538	     -0.00000000	      0.00000000	     -0.00000000	     -0.01090840	    -10.15676415	    -19.91750476	     -0.00000000	    -22.31934178	     -6.87281080	      7.28482106	    -18.08276765	      0.00000000	     -0.00000000	      0.00000000	     -0.31560383	    -37.45109629	     -0.91018534	     -0.00000000	     -0.00000000	      0.00000000	     -0.00000000
      0.02916667	      8.03307703	    -13.03742984	     87.52145612	      0.45103699	      1.12155762	      0.09577555	     22.90523678	     11.74894862	     39.93221755	     -0.33439422	     -0.00000000	      0.00000000	     -0.00000000	     -0.00583628	     -9.96220787	    -19.91655574	      0.00000000	    -23.57369098	     -6.48664912	      7.27873088	    -18.87901092	     -0.00000000	      0.00000000	     -0.00000000	     -0.32950090	    -37.52157780	     -0.71842964	     -0.00000000	     -0.00000000	      0.00000000	     -0.00000000
      0.03333333	      7.85443395	    -12.03514761	     87.25435342	      0.45126913	      1.12135475	      0.08022526	     21.51945222	     11.63437732	     39.93401114	     -0.13248488	     -0.00000000	     -0.00000000	     -0.00000000	     -0.00231230	     -9.77967140	    -19.91560887	      0.00000000	    -24.80558206	     -6.13523301	      7.15521794	    -19.78331167	      0.00000000	      0.00000000	     -0.00000000	     -0.34528393	    -37.52055607	     -0.43404997	     -0.00000000	     -0.00000000	      0.00000000	     -0.00000000
      0.03750000	      7.69475653	    -11.01096618	     86.98128276	      0.45148543	      1.12105794	      0.06461670	     20.08276817	     11.53714198	     39.93583581	     -0.00471983	      0.00000000	      0.00000000	     -0.00000000	     -0.00008238	     -9.70584665	    -19.91470833	     -0.00000000	    -26.03271571	     -5.79302770	      6.91549415	    -20.72470812	     -0.00000000	      0.00000000	     -0.00000000	     -0.36171439	    -37.50175507	     -0.21381963	     -0.00000000	     -0.00000000	      0.00000000	     -0.00000000
      0.04166667	      7.61770213	     -9.86394073	     86.71475772	      0.45179632	      1.12066298	      0.04882287	     18.48763400	     11.53302536	     39.93689748	      0.02320020	     -0.00000000	      0.00000000	     -0.00000000	      0.00040492	     -9.67205513	    -19.91380573	     -0.00000000	    -27.36917225	     -5.53477822	      6.53283071	    -21.70775018	      0.00000000	      0.00000000	     -0.00000000	     -0.37887171	    -37.43236577	     -0.03143073	     -0.00000000	     -0.00000000	      0.00000000	     -0.00000000
      0.04583333	      7.44279511	     -8.90255091	     86.47081664	      0.45196227	      1.12001896	      0.03320275	     17.08949481	     11.41686872	     39.93827833	     -0.01628791	     -0.00000000	      0.00000000	     -0.00000000	     -0.00028428	     -9.84939877	    -19.91275890	      0.00000000	    -28.39637991	     -5.20378168	      6.12943837	    -22.84706986	     -0.00000000	     -0.00000000	      0.00000000	     -0.39875659	    -37.27474262	      0.03036353	      0.00000000	     -0.00000000	      0.00000000	     -0.00000000
      0.05000000	      7.25630129	     -8.21264578	     86.24579352	      0.45223556	      1.11892473	      0.01759056	     15.96774201	     11.30841382	     39.93917251	     -0.13161739	     -0.00000000	      0.00000000	     -0.00000000	     -0.00229716	    -10.11511136	    -19.91172790	     -0.00000000	    -29.08715230	     -4.92015910	      5.70004387	    -24.04275712	      0.00000000	     -0.00000000	      0.00000000	     -0.41962527	    -37.11605532	      0.31510743	      0.00000000	     -0.00000000	      0.00000000	     -0.00000000
      0.05416667	      6.99240062	     -7.77033323	     86.03762036	      0.45255991	      1.11744679	      0.00187337	     15.09649678	     11.13825323	     39.93954047	     -0.33038073	     -0.00000000	      0.00000000	     -0.00000000	     -0.00576623	    -10.38767232	    -19.91057206	     -0.00000000	    -29.45068611	     -4.59453853	      5.22837724	    -25.36708644	     -0.00000000	     -0.00000000	      0.00000000	     -0.44273918	    -36.71141782	      0.29300202	      0.00000000	     -0.00000000	      0.00000000	     -0.00000000
      0.05833333	      6.68945945	     -7.46238364	     85.83301444	      0.45289750	      1.11567712	     -0.01385906	     14.33859394	     10.92549677	     39.94027333	     -0.51543282	     -0.00000000	     -0.00000000	      0.00000000	     -0.00899600	    -10.73494638	    -19.90905806	     -0.00000000	    -29.62075685	     -4.26919336	      4.73387739	    -26.77426942	     -0.00000000	      0.00000000	     -0.00000000	     -0.46729916	    -36.14741411	      0.34812962	      0.00000000	     -0.00000000	      0.00000000	     -0.00000000
      0.06250000	      6.39632821	     -7.17685297	     85.61475572	      0.45327449	      1.11372609	     -0.02958395	     13.57800592	     10.71796844	     39.94077715	     -0.70355435	     -0.00000000	     -0.00000000	      0.00000000	     -0.01227934	    -11.05473686	    -19.90722767	     -0.00000000	    -29.71373966	     -3.97183038	      4.11065654	    -28.28137874	     -0.00000000	     -0.00000000	      0.00000000	     -0.49360318	    -35.39321027	      0.27625774	     -0.00000000	     -0.00000000	      0.00000000	     -0.00000000
      0.06666667	      6.16305737	     -6.90387871	     85.41844791	      0.45366691	      1.11161283	     -0.04535519	     12.80339549	     10.55805784	     39.94057958	     -0.89290095	      0.00000000	      0.00000000	     -0.00000000	     -0.01558406	    -11.46726461	    -19.90538456	      0.00000000	    -29.77302586	     -3.75564778	      3.41068969	    -29.82487119	     -0.00000000	     -0.00000000	      0.00000000	     -0.52054220	    -34.51173079	      0.11641555	      0.00000000	     -0.00000000	      0.00000000	     -0.00000000
      0.07083333	      5.98660650	     -6.61226529	     85.19641247	      0.45410386	      1.10952013	     -0.06107390	     11.97827125	     10.46602488	     39.94057032	     -1.06531322	      0.00000000	      0.00000000	     -0.00000000	     -0.01859322	    -12.22094027	    -19.90341962	     -0.00000000	    -29.81117669	     -3.58388018	      2.63371724	    -31.50197759	      0.00000000	     -0.00000000	      0.00000000	     -0.54981323	    -33.33554342	     -0.33819064	      0.00000000	      0.00000000	      0.00000000	     -0.00000000
      0.07500000	      5.80503094	     -6.27303500	     84.96092893	      0.45462962	      1.10722204	     -0.07673530	     11.09280619	     10.37583231	     39.94010381	     -1.27707722	      0.00000000	      0.00000000	     -0.00000000	     -0.02228920	    -12.88400661	    -19.90199701	      0.00000000	    -29.83845273	     -3.45479934	      1.77635428	    -33.32481797	     -0.00000000	     -0.00000000	      0.00000000	     -0.58162780	    -31.52637068	     -0.07681206	      0.00000000	      0.00000000	      0.00000000	     -0.00000000
      0.07916667	      5.57431807	     -5.92959788	     84.67909708	      0.45517708	      1.10489553	     -0.09250644	     10.17173482	     10.25680118	     39.93975024	     -1.48607021	     -0.00000000	      0.00000000	     -0.00000000	     -0.02593682	    -13.17127181	    -19.89964577	      0.00000000	    -29.85808295	     -3.25206709	      0.88002162	    -35.05189156	      0.00000000	     -0.00000000	      0.00000000	     -0.61177092	    -30.25243499	     -0.68055936	      0.00000000	      0.00000000	      0.00000000	     -0.00000000
      0.08333333	      5.49506628	     -5.55525309	     84.43130609	      0.45603131	      1.10250075	     -0.10810372	      9.17266180	     10.37519283	     39.93884734	     -1.72816981	      0.00000000	     -0.00000000	      0.00000000	     -0.03016225	    -12.74460682	    -19.89798885	      0.00000000	    -29.87382536	     -3.27503242	     -0.10890674	    -36.96161493	     -0.00000000	      0.00000000	     -0.00000000	     -0.64510188	    -28.26457992	     -0.54758645	      0.00000000	     -0.00000000	      0.00000000	     -0.00000000
      0.08750000	      5.52654221	     -5.14974791	     84.10522831	      0.45706392	      1.10039734	     -0.12328720	      8.15392019	     10.71633164	     39.93765487	     -2.25456135	      0.00000000	      0.00000000	     -0.00000000	     -0.03934952	    -11.75866678	    -19.89629807	      0.00000000	    -29.88511275	     -3.36911790	     -1.17676067	    -38.87302810	      0.00000000	     -0.00000000	      0.00000000	     -0.67846233	    -26.36267968	     -0.67132857	     -0.00000000	     -0.00000000	      0.00000000	     -0.00000000
      0.09166667	      5.76058509	     -4.72337534	     83.72221459	      0.45837204	      1.09848517	     -0.13819603	      7.14080898	     11.33524138	     39.93620551	     -2.94140387	     -0.00000000	      0.00000000	     -0.00000000	     -0.05133718	    -10.65096968	    -19.89433054	     -0.00000000	    -29.89416892	     -3.67528018	     -2.45615777	    -40.90121299	     -0.00000000	     -0.00000000	      0.00000000	     -0.71386083	    -24.22223144	     -0.40492046	     -0.00000000	     -0.00000000	     -0.00000000	     -0.00000000
